<svg fill="#ff5c00" version="1.1" xmlns="http://www.w3.org/2000/svg" width="150" height="150" viewBox="0 0 1024 1024">
    <title></title>
    <g id="icomoon-ignore">
    </g>
    <path d="M444 2q-52 6-99 27t-87 55q-25 22-32.5 34.5t-0.5 19.5q7 6 13.5 4t18.5-15q32-34 70-55.5t81-32.5 86-9 84 16q61 20 107.5 60.5t74.5 96.5q4 8 7.5 16t4.5 11q3 10 10 13.5t24 4.5q52 4 97.5 34t69.5 77q27 54 19.5 115t-47.5 108q-8 9-9 15t4 11q4 5 10 5t11-5q9-8 20.5-25t18.5-32q21-43 24-89 2-45-12.5-87t-43.5-77q-30-35-73-56-20-10-39.5-15.5t-42.5-7.5l-14-2-4-11q-6-13-17.5-33.5t-21.5-33.5q-39-52-91-85.5t-116-46.5q-20-5-52.5-6.5t-52.5 1.5v0zM190 172q-5 3-10.5 13t-13.5 31q-10 23-14.5 43.5t-8.5 55.5q-1 6-2 7.5t-6 2.5q-11 2-27 9.5t-28 15.5q-27 18-45.5 43t-27.5 58q-4 12-5 20t-1 29 1 29 4 20q17 54 57.5 88.5t94.5 40.5q8 1 24 1.5t30 0.5h34v41q0 38-3 43.5t-21 5.5h-16l-3-7q-6-14-20.5-23.5t-29.5-9.5q-22 0-38.5 17t-16.5 38q0 22 16.5 38.5t38.5 16.5q15 0 29.5-9.5t20.5-22.5l3-8h16q16 0 25-2.5t16-10.5q9-9 11-19.5t2-46.5v-41h94v22q0 14 0.5 18.5t3.5 7.5q4 4 11 4t11-4q3-3 3.5-7.5t0.5-18.5v-22h96v70q0 50 0.5 60.5t3.5 13.5q4 4 11 4t11-4q3-3 3.5-13.5t0.5-60.5v-70h96v97q0 54 0.5 78t1.5 28q3 8 11 16t16 11q4 1 11 1.5t14 0.5h16l3 8q6 13 20.5 22.5t29.5 9.5q22 0 38.5-16.5t16.5-38.5q0-21-16.5-38t-38.5-17q-15 0-29.5 9.5t-20.5 23.5l-3 7h-16q-20 0-22-9.5t-2-95.5v-97h94v41q0 36 2 46.5t11 19.5q7 8 16 10.5t25 2.5h16l3 8q6 13 20.5 22.5t29.5 9.5q22 0 38.5-16.5t16.5-38.5q0-21-16.5-38t-38.5-17q-15 0-29.5 9.5t-20.5 23.5l-3 7h-16q-18 0-21-5.5t-3-43.5v-40l29-2q16 0 26-1.5t21-4.5q17-4 32-10.5t20-10.5q5-5 4.5-11.5t-5.5-10.5-9.5-3.5-17.5 6.5q-6 3-15.5 6.5t-16.5 4.5l-17 5h-334q-235 0-287-0.5t-62-3.5q-39-9-69-38t-41-69q-3-13-3-37.5t4-38.5q10-41 40.5-70t71.5-39q16-4 20-9.5t6-28.5q3-32 9.5-56t18.5-49q4-8 6.5-15t2.5-10q0-8-6.5-12t-13.5-1v0zM164 763q6 3 10 9.5t4 12.5q0 9-8 17t-17 8-17-7.5-8-16.5q0-10 7.5-18t16.5-8q3 0 6 1l6 2zM880 763q6 3 10 9.5t4 12.5q0 9-7.5 17t-17.5 8q-9 0-17-7.5t-8-16.5q0-10 8-18t17-8q2 0 5.5 1t5.5 2zM756 875q6 3 10 9.5t4 12.5q0 10-8 17.5t-17 7.5-17-7.5-8-16.5q0-10 8-18t17-8q2 0 5.5 1t5.5 2v0zM374 779q-3 3-3.5 10t-0.5 40q0 41-2.5 47t-21.5 6h-16l-3-7q-6-14-20.5-23.5t-29.5-9.5q-22 0-38.5 17t-16.5 38q0 22 16.5 38.5t38.5 16.5q15 0 29.5-9.5t20.5-22.5l3-8h16q16 0 25-2.5t16-10.5q9-9 11-20t2-50q0-33-0.5-40t-3.5-10q-2-3-5-4t-6-1-6 1-5 4v0zM288 875q6 3 10 9.5t4 12.5q0 10-8 17.5t-17 7.5-17-7.5-8-16.5q0-10 7.5-18t16.5-8q3 0 6.5 1t5.5 2v0zM500 875q-3 2-3.5 6.5t-0.5 16.5v18l-7 3q-14 6-23.5 20.5t-9.5 29.5q0 22 16.5 38.5t38.5 16.5 38.5-16.5 16.5-38.5q0-15-9.5-29.5t-22.5-20.5l-8-3v-18q0-17-3-22.5t-12-5.5q-3 0-6 1.5t-5 3.5v0zM522 947q6 3 10 9.5t4 12.5q0 10-8 17.5t-17 7.5-17-7.5-8-16.5q0-10 7.5-18t17.5-8q2 0 5.5 1t5.5 2v0z"></path>
</svg>
