<svg fill="#ff5c00" version="1.1" xmlns="http://www.w3.org/2000/svg" width="150" height="150" viewBox="0 0 1024 1024">
    <title></title>
    <g id="icomoon-ignore">
    </g>
    <path d="M465 4q-4 1-8 4.5t-6 6.5q-4 5-6 15t-8 50q-3 23-5.5 40t-2.5 18l-4.5 1.5t-11.5 3.5q-8 2-12 2.5t-5-0.5-11.5-14.5-24.5-30.5q-13-18-24.5-31.5t-14.5-15.5-7-3-12-1q-9 0-15 2.5t-30 16.5q-13 8-23.5 14.5t-12.5 7.5q-4 3-7.5 11.5t-3.5 14.5q0 3 5.5 19t15.5 40q9 21 15 37t6 17-3 5-8 8q-5 5-8.5 7.5t-5.5 2.5q-2-1-17.5-7t-36.5-15q-22-9-38-14.5t-19-5.5q-6 0-14.5 3.5t-11.5 7.5q-1 2-7.5 12.5t-14.5 23.5q-14 24-16.5 30t-2.5 15q0 8 1 12t3 7 15.5 14 31.5 25q17 14 30 24.5t14 10.5q2 2 1.5 6t-2.5 12q-2 7-3.5 11.5l-1.5 4.5q-1 0-18 2.5t-40 5.5q-40 6-50 8t-15 6q-10 8-12.5 18t-2.5 43q0 22 0.5 31.5t2.5 13.5q6 14 18 18.5t61 11.5q23 3 39 5.5t17 2.5l1.5 4.5t3.5 11.5q2 8 2.5 12t-1.5 6q-1 0-14 10.5t-30 24.5q-18 14-31.5 25t-15.5 14-3 7-1 12q0 9 2.5 15t16.5 30q8 13 14.5 23.5t7.5 12.5q3 4 11.5 7.5t14.5 3.5q3 0 19-5.5t40-15.5q21-9 37-15t17-6 5 3 8 8q5 5 7.5 8.5t2.5 5.5q-1 2-7 17.5t-15 36.5q-9 22-14.5 38t-5.5 19q0 6 3.5 14.5t7.5 11.5q2 1 12.5 7.5t23.5 14.5q24 14 29.5 16.5t15.5 2.5q8 0 12-1t7-4q3-2 15-16t26-32 24.5-31 11.5-13q2 0 16.5 4l14.5 4q0 1 2.5 17t5.5 39q7 49 11.5 61t18.5 18q8 3 45 3t45-3q14-6 18.5-18t11.5-61q3-23 5.5-39t2.5-17l4.5-1.5t11.5-3.5q8-2 12-2.5t5 0.5 11.5 14.5 24.5 30.5q13 18 24.5 31.5t14.5 15.5 7 3 12 1q9 0 15-2.5t30-16.5q13-8 23.5-14t12.5-8q4-3 7.5-11.5t3.5-14.5q0-3-5.5-19t-14.5-38q-9-21-15-36.5t-7-17.5q0-2 2.5-5.5t7.5-8.5q4-5 8-8t5-3 17 6 37 15q23 9 39.5 15t19.5 6q6 0 14.5-3.5t11.5-7.5q1-2 7.5-12.5t14.5-23.5q14-24 16.5-30t2.5-15q0-8-1-12t-3-7-16-14.5-32-25.5q-18-15-31-25.5t-14-11.5q0-1 3.5-15.5t4.5-15.5q1 0 17-2.5t39-5.5q49-7 61-11.5t18-18.5q3-8 3-45t-3-45q-6-14-18-18.5t-61-11.5q-23-3-39-5.5t-17-2.5l-4-14.5t-4-16.5q0-1 13-11.5t31-24.5 32-26 16-15q3-3 4-7t1-12q0-10-2.5-15.5t-16.5-29.5q-8-13-14.5-23.5t-7.5-12.5q-3-4-11.5-7.5t-14.5-3.5q-3 0-19.5 6t-39.5 15q-21 9-37 15t-17 6-5-3-8-8q-5-5-7.5-8.5t-2.5-5.5q1-2 7-17.5t15-36.5q9-22 14.5-38t5.5-19q0-6-3.5-14.5t-7.5-11.5q-2-2-12.5-8t-23.5-14q-24-14-30-16.5t-15-2.5q-8 0-12 1t-7 3-14.5 15.5-24.5 31.5q-14 17-24.5 30.5t-11.5 14.5-5 0.5-12-2.5q-7-2-11.5-3.5l-4.5-1.5q0-1-2.5-17t-5.5-39q-7-49-11.5-61t-18.5-18q-4-2-13.5-2.5t-31.5-0.5q-25 0-33.5 1t-13.5 3v0zM549 32l2.5 17.5t6.5 40.5q6 44 9 55.5t11 17.5q6 4 25 8.5t28 3.5q9 0 16.5-7.5t38.5-46.5q13-18 23.5-30.5t11.5-12.5q4 0 33.5 17.5t29.5 19.5q0 1-6 17t-15 37q-17 41-20 53.5t2 21.5q2 4 17 18.5t19 17.5q8 4 21 0.5t53-19.5q21-9 37-15t17-6q2 0 19.5 29.5t17.5 33.5q0 1-12.5 11.5t-30.5 23.5q-39 31-46.5 38.5t-8.5 16.5q0 9 4.5 28t8.5 25q6 8 17.5 11t55.5 9q23 3 40 6t18 3q2 1 2 37t-2 37q-1 0-18 3t-40 6q-44 6-55.5 9t-17.5 11q-4 6-8.5 25t-4.5 28q1 9 8.5 16.5t46.5 38.5q18 13 30.5 23.5t12.5 11.5q0 4-17.5 33.5t-19.5 29.5q-1 0-17-6t-37-15q-41-17-53.5-20t-21.5 2q-4 2-18.5 17t-17.5 19q-4 8-0.5 21t19.5 53q9 21 15 37t6 17q0 2-29.5 19.5t-33.5 17.5q-1 0-11.5-12.5t-23.5-30.5q-31-39-38.5-46.5t-16.5-8.5q-9 0-28 4.5t-25 8.5q-8 6-11 17.5t-9 55.5q-4 23-6.5 40.5l-2.5 17.5q-1 2-37 2t-37-2l-2.5-17.5t-6.5-40.5q-6-44-9-55.5t-11-17.5q-2-1-9-3.5t-15-4.5q-16-5-26-4.5t-16 4.5q-2 1-14 15.5t-26 32.5q-14 19-25 32t-12 13q-4 0-33.5-17.5t-29.5-19.5q0-1 6-17t15-37q17-41 20-53.5t-2-21.5q-2-4-17-18.5t-19-17.5q-8-4-21-0.5t-53 19.5q-21 9-37 15t-17 6q-2 0-19.5-29.5t-17.5-33.5q0-1 13-12t32-25q18-14 32.5-26t15.5-14q4-6 4.5-16t-4.5-26q-2-8-4.5-15t-3.5-9q-6-8-17.5-11t-55.5-9q-23-4-40.5-6.5l-17.5-2.5q-2-1-2-37t2-37l17.5-2.5t40.5-6.5q44-6 55.5-9t17.5-11q1-2 3.5-9t4.5-15q5-16 4.5-26t-4.5-16q-2-2-16-14t-32-26q-19-14-32-25t-13-12q0-4 17.5-33.5t19.5-29.5q1 0 17 6t37 15q40 16 53 19.5t21-0.5q4-3 19-17.5t17-18.5q5-9 2-21.5t-20-53.5q-9-21-15-37t-6-17q0-2 29.5-19.5t33.5-17.5q1 0 11.5 12.5t23.5 30.5q31 39 38.5 46.5t16.5 7.5q9 1 28-3.5t25-8.5q8-6 11-17.5t9-55.5q4-23 6.5-40.5l2.5-17.5q1-2 37-2t37 2v0zM488 235q-38 5-70 16.5t-61 30.5q-11 7-15 12t-4 10 4.5 9.5 9.5 4.5q2 0 8.5-3.5t14.5-8.5q17-11 28-16.5t27-11.5q53-18 110-11.5t104 36.5q36 23 62 56 26 34 39.5 72.5t13.5 79.5q1 42-13 83-6 16-11.5 27t-16.5 28q-5 8-8.5 14.5t-3.5 8.5q0 5 4.5 9.5t9.5 4.5 9.5-3.5 12.5-15.5q15-23 26.5-50t16.5-55q4-21 4-52t-5-51q-9-43-29-80-20-36-48.5-64.5t-65.5-48.5q-37-19-79-27-13-2-38.5-3.5t-35.5-0.5v0zM474 302q-12 2-31 9t-31 13q-38 21-65 54t-40 77q-4 13-5 21t-1 36 1 36 5 21q16 51 50 88t82 55q25 9 56 11.5t57-2.5q64-12 110.5-59t58.5-111q2-10 2.5-20.5t0.5-26.5q-1-21-2-26t-4-9q-5-5-11.5-5t-10.5 5q-2 3-2.5 8.5t0.5 25.5q0 24-2.5 41.5t-10.5 35.5q-8 20-11 20.5t-17-13.5q-14-15-31.5-27t-33.5-19l-15-6 9-11q27-29 25.5-68t-30.5-65q-14-14-30-20.5t-35-6.5-35 6.5-30 20.5q-29 26-30.5 64.5t25.5 68.5l9 11-15 6q-17 7-34 19t-31 27q-14 14-17 13.5t-11-20.5q-11-25-13-55.5t5-57.5q12-48 48-84t85-48q13-4 21-4.5t28 0.5q26 1 40.5 4t35.5 14q23 11 42.5 29t32.5 39q5 9 11.5 10.5t13.5-3.5q6-5 5-11.5t-9-19.5q-21-31-54-54t-71-33q-13-4-44.5-5t-45.5 1v0zM535 398q11 4 21 13.5t15 20.5q6 12 6 27t-5 27q-13 28-41.5 36.5t-54.5-8.5q-27-17-29.5-49t21.5-54q14-12 32-15.5t35 2.5v0zM552 561q24 6 44.5 18t37.5 30q13 14 14.5 18.5t-3.5 10.5q-3 3-8 7.5t-10 8.5q-26 21-54 30.5t-61 9.5q-37 0-67.5-12t-58.5-38q-9-8-10.5-10.5t-0.5-5.5q3-6 16.5-20t23.5-21q30-21 66-28t71 2v0zM295 341q-8 6-23.5 33.5t-23.5 50.5q-7 23-10 42t-3 46 3.5 47 11.5 43q25 70 80 118t128 63q54 11 108.5 0t100.5-42q12-8 15.5-12.5t3.5-10.5q0-4-4.5-8.5t-9.5-4.5q-2 0-8.5 3.5t-14.5 8.5q-17 11-28 16.5t-27 11.5q-63 21-128.5 8.5t-115.5-55.5q-36-32-57-72t-26.5-83.5 4.5-87.5 37-84q8-12 9.5-18.5t-4.5-11.5q-4-3-9-3.5t-9 2.5v0z"></path>
</svg>
