<svg fill="#ff5c00" version="1.1" xmlns="http://www.w3.org/2000/svg" width="150" height="150" viewBox="0 0 1024 1024">
    <title></title>
    <g id="icomoon-ignore">
    </g>
    <path d="M700 141q-3 1-5 3t-3 4q-1 1-1 24t-0.5 68.5-0.5 113.5v521l6 6q6 5 13 5t13-6l6-6v-521q0-68-0.5-113t-0.5-68-1-24q-2-3-7.5-6.5t-9.5-3.5q-2 0-4.5 1t-4.5 2zM203 223q-2 2-3.5 5.5t-2.5 7.5v25q-1 23-1 61.5v196.5l1 275 4 5q6 8 14.5 8.5t15.5-6.5l5-5v-566l-6-6q-5-6-13-6t-14 5v0zM600 274l-7 6-1 226q0 151 0.5 189.5t2.5 43.5q4 9 13.5 10.5t16.5-4.5l6-5 1-227q0-127-0.5-178.5t-1.5-55.5q-2-4-7.5-7.5t-11.5-3.5q-2 0-5.5 1.5t-5.5 4.5zM799 298q-9 3-10 25.5t-1 188.5v204l6 6q7 9 18 6.5t14-13.5q1-4 1.5-55t0.5-149q0-158-1-182t-9-30q-4-2-9-2.5t-10 1.5v0zM302 322l-6 6v174q0 87 0.5 131.5t1.5 46.5q4 8 15 9t17-6q3-4 3.5-27.5t0.5-152.5v-175l-6-6q-3-3-6-4.5t-7-1.5-7 1.5-6 4.5zM107 356q-7 4-8 23t-1 130q0 115 1.5 132.5t11.5 21.5q6 3 11.5 1.5t10.5-6.5l5-6v-144l-1-144-6-5q-4-4-11.5-5t-12.5 2zM899 396q-2 1-4.5 3t-4.5 4l-4 6v106l1 105 6 5q5 4 12 4.5t12-2.5q7-5 8-20.5t1-96.5l-1-104-5-5q-4-4-10-5.5t-11 0.5v0zM499 412q-6 4-7.5 17.5t-1.5 79.5q0 67 1.5 80t8.5 17q5 3 12 2t11-5l6-5 1-85q0-68-1-81.5t-8-18.5q-3-3-10.5-3t-11.5 2v0zM10 437q-7 4-8.5 13.5t-1.5 53.5v54l7 7q5 5 7.5 6t6.5 0q3 0 7-2t6-4l5-5v-114l-7-6q-5-5-10.5-5.5t-11.5 2.5zM998 448q-3 1-5.5 3.5t-4.5 5.5q-3 4-3.5 12t-0.5 42l1 49 6 5q6 7 13.5 6.5t13.5-7.5l6-6v-49q0-34-0.5-42t-3.5-12q-4-5-9.5-6.5t-12.5-0.5zM400 460l-6 6v45q0 21 0.5 34t1.5 16q1 2 3.5 4.5t5.5 3.5q6 3 12.5 1.5t11.5-7.5q3-4 3.5-11t1.5-37q0-27-0.5-36t-2.5-14q-4-9-14-11t-17 6v0z"></path>
</svg>
