<!-- Generated by IcoMoon.io -->
<svg version="1.1" xmlns="http://www.w3.org/2000/svg" width="1024" height="1024" viewBox="0 0 1024 1024">
<title></title>
<g id="icomoon-ignore">
</g>
<path d="M700.002 141.004q-3.001 1.003-4.999 3.001t-3.001 3.998q-1.003 1.003-1.003 24.003t-0.498 68.501-0.498 113.498v520.999l6.003 6.003q6.003 4.999 13.001 4.999t13.001-6.003l6.003-6.003v-520.999q0-67.998-0.498-113t-0.498-67.998-1.003-24.003q-1.999-3.001-7.502-6.5t-9.501-3.5q-1.999 0-4.502 1.003t-4.502 1.999zM203.004 223.004q-1.999 1.999-3.5 5.497t-2.502 7.502v24.998q-1.003 23-1.003 61.5v196.501l1.003 274.999 3.998 4.999q6.003 8.001 14.5 8.499t15.497-6.5l4.999-4.999v-565.996l-6.003-6.003q-4.999-6.003-13.001-6.003t-14.001 4.999v0zM600.002 274.002l-6.998 6.003-1.003 226.001q0 150.999 0.498 189.501t2.502 43.501q3.998 8.999 13.499 10.498t16.499-4.502l6.003-4.999 1.003-226.996q0-126.997-0.498-178.501t-1.501-55.501q-1.999-3.998-7.502-7.502t-11.5-3.5q-1.999 0-5.497 1.501t-5.497 4.502zM798.998 298.001q-8.999 3.001-9.999 25.502t-1.003 188.499v203.997l6.003 6.003q6.998 8.999 18 6.5t14.001-13.499q1.003-3.998 1.501-55.001t0.498-149.001q0-157.998-1.003-181.999t-8.999-29.998q-3.998-1.999-8.999-2.502t-9.999 1.501v0zM302.001 322l-6.003 6.003v173.999q0 86.999 0.498 131.498t1.501 46.497q3.998 8.001 15 8.999t16.997-6.003q3.001-3.998 3.5-27.501t0.498-152.499v-175.001l-6.003-6.003q-3.001-3.001-6.003-4.502t-6.998-1.501-6.998 1.501-6.003 4.502zM107.002 356.001q-6.998 3.998-8.001 23t-1.003 129.997q0 114.999 1.501 132.501t11.5 21.499q6.003 3.001 11.5 1.501t10.498-6.5l4.999-6.003v-144.001l-1.003-144.001-6.003-4.999q-3.998-3.998-11.5-4.999t-12.503 1.999zM898.998 395.999q-1.999 1.003-4.502 3.001t-4.502 3.998l-3.998 6.003v106.002l1.003 104.999 6.003 4.999q4.999 3.998 11.998 4.502t11.998-2.502q6.998-4.999 8.001-20.5t1.003-96.501l-1.003-103.997-4.999-4.999q-3.998-3.998-9.999-5.497t-11.002 0.498v0zM498.999 412q-6.003 3.998-7.502 17.502t-1.501 79.499q0 67.001 1.501 80.001t8.499 16.997q4.999 3.001 11.998 1.999t11.002-4.999l6.003-4.999 1.003-85.001q0-67.998-1.003-81.502t-8.001-18.498q-3.001-3.001-10.498-3.001t-11.5 1.999v0zM10.003 436.999q-6.998 3.998-8.499 13.499t-1.501 53.503v54l6.998 6.998q4.999 4.999 7.502 6.003t6.5 0q3.001 0 6.998-1.999t6.003-3.998l4.999-4.999v-114l-6.998-6.003q-4.999-4.999-10.498-5.497t-11.5 2.502zM997.994 448.001q-3.001 1.003-5.497 3.5t-4.502 5.497q-3.001 3.998-3.5 11.998t-0.498 42.003l1.003 49.001 6.003 4.999q6.003 6.998 13.499 6.5t13.499-7.502l6.003-6.003v-49.001q0-34.002-0.498-42.003t-3.5-11.998q-3.998-4.999-9.501-6.5t-12.503-0.498zM400.003 459.998l-6.003 6.003v44.997q0 21.001 0.498 34.002t1.501 16.001q1.003 1.999 3.5 4.502t5.497 3.5q6.003 3.001 12.503 1.501t11.5-7.502q3.001-3.998 3.5-11.002t1.501-37.002q0-26.998-0.498-36t-2.502-14.001q-3.998-8.999-14.001-11.002t-16.997 6.003v0z"></path>
</svg>
