<!-- Generated by IcoMoon.io -->
<svg version="1.1" xmlns="http://www.w3.org/2000/svg" width="640" height="640" viewBox="0 0 640 640">
<title></title>
<g id="icomoon-ignore">
    <line stroke-width="1" x1="16" y1="0" x2="16" y2="640" stroke="#449FDB" opacity="0.3"></line>
    <line stroke-width="1" x1="32" y1="0" x2="32" y2="640" stroke="#449FDB" opacity="1"></line>
    <line stroke-width="1" x1="48" y1="0" x2="48" y2="640" stroke="#449FDB" opacity="0.3"></line>
    <line stroke-width="1" x1="64" y1="0" x2="64" y2="640" stroke="#449FDB" opacity="1"></line>
    <line stroke-width="1" x1="80" y1="0" x2="80" y2="640" stroke="#449FDB" opacity="0.3"></line>
    <line stroke-width="1" x1="96" y1="0" x2="96" y2="640" stroke="#449FDB" opacity="1"></line>
    <line stroke-width="1" x1="112" y1="0" x2="112" y2="640" stroke="#449FDB" opacity="0.3"></line>
    <line stroke-width="1" x1="128" y1="0" x2="128" y2="640" stroke="#449FDB" opacity="1"></line>
    <line stroke-width="1" x1="144" y1="0" x2="144" y2="640" stroke="#449FDB" opacity="0.3"></line>
    <line stroke-width="1" x1="160" y1="0" x2="160" y2="640" stroke="#449FDB" opacity="1"></line>
    <line stroke-width="1" x1="176" y1="0" x2="176" y2="640" stroke="#449FDB" opacity="0.3"></line>
    <line stroke-width="1" x1="192" y1="0" x2="192" y2="640" stroke="#449FDB" opacity="1"></line>
    <line stroke-width="1" x1="208" y1="0" x2="208" y2="640" stroke="#449FDB" opacity="0.3"></line>
    <line stroke-width="1" x1="224" y1="0" x2="224" y2="640" stroke="#449FDB" opacity="1"></line>
    <line stroke-width="1" x1="240" y1="0" x2="240" y2="640" stroke="#449FDB" opacity="0.3"></line>
    <line stroke-width="1" x1="256" y1="0" x2="256" y2="640" stroke="#449FDB" opacity="1"></line>
    <line stroke-width="1" x1="272" y1="0" x2="272" y2="640" stroke="#449FDB" opacity="0.3"></line>
    <line stroke-width="1" x1="288" y1="0" x2="288" y2="640" stroke="#449FDB" opacity="1"></line>
    <line stroke-width="1" x1="304" y1="0" x2="304" y2="640" stroke="#449FDB" opacity="0.3"></line>
    <line stroke-width="1" x1="320" y1="0" x2="320" y2="640" stroke="#449FDB" opacity="1"></line>
    <line stroke-width="1" x1="336" y1="0" x2="336" y2="640" stroke="#449FDB" opacity="0.3"></line>
    <line stroke-width="1" x1="352" y1="0" x2="352" y2="640" stroke="#449FDB" opacity="1"></line>
    <line stroke-width="1" x1="368" y1="0" x2="368" y2="640" stroke="#449FDB" opacity="0.3"></line>
    <line stroke-width="1" x1="384" y1="0" x2="384" y2="640" stroke="#449FDB" opacity="1"></line>
    <line stroke-width="1" x1="400" y1="0" x2="400" y2="640" stroke="#449FDB" opacity="0.3"></line>
    <line stroke-width="1" x1="416" y1="0" x2="416" y2="640" stroke="#449FDB" opacity="1"></line>
    <line stroke-width="1" x1="432" y1="0" x2="432" y2="640" stroke="#449FDB" opacity="0.3"></line>
    <line stroke-width="1" x1="448" y1="0" x2="448" y2="640" stroke="#449FDB" opacity="1"></line>
    <line stroke-width="1" x1="464" y1="0" x2="464" y2="640" stroke="#449FDB" opacity="0.3"></line>
    <line stroke-width="1" x1="480" y1="0" x2="480" y2="640" stroke="#449FDB" opacity="1"></line>
    <line stroke-width="1" x1="496" y1="0" x2="496" y2="640" stroke="#449FDB" opacity="0.3"></line>
    <line stroke-width="1" x1="512" y1="0" x2="512" y2="640" stroke="#449FDB" opacity="1"></line>
    <line stroke-width="1" x1="528" y1="0" x2="528" y2="640" stroke="#449FDB" opacity="0.3"></line>
    <line stroke-width="1" x1="544" y1="0" x2="544" y2="640" stroke="#449FDB" opacity="1"></line>
    <line stroke-width="1" x1="560" y1="0" x2="560" y2="640" stroke="#449FDB" opacity="0.3"></line>
    <line stroke-width="1" x1="576" y1="0" x2="576" y2="640" stroke="#449FDB" opacity="1"></line>
    <line stroke-width="1" x1="592" y1="0" x2="592" y2="640" stroke="#449FDB" opacity="0.3"></line>
    <line stroke-width="1" x1="608" y1="0" x2="608" y2="640" stroke="#449FDB" opacity="1"></line>
    <line stroke-width="1" x1="624" y1="0" x2="624" y2="640" stroke="#449FDB" opacity="0.3"></line>
    <line stroke-width="1" x1="0" y1="16" x2="640" y2="16" stroke="#449FDB" opacity="0.3"></line>
    <line stroke-width="1" x1="0" y1="32" x2="640" y2="32" stroke="#449FDB" opacity="1"></line>
    <line stroke-width="1" x1="0" y1="48" x2="640" y2="48" stroke="#449FDB" opacity="0.3"></line>
    <line stroke-width="1" x1="0" y1="64" x2="640" y2="64" stroke="#449FDB" opacity="1"></line>
    <line stroke-width="1" x1="0" y1="80" x2="640" y2="80" stroke="#449FDB" opacity="0.3"></line>
    <line stroke-width="1" x1="0" y1="96" x2="640" y2="96" stroke="#449FDB" opacity="1"></line>
    <line stroke-width="1" x1="0" y1="112" x2="640" y2="112" stroke="#449FDB" opacity="0.3"></line>
    <line stroke-width="1" x1="0" y1="128" x2="640" y2="128" stroke="#449FDB" opacity="1"></line>
    <line stroke-width="1" x1="0" y1="144" x2="640" y2="144" stroke="#449FDB" opacity="0.3"></line>
    <line stroke-width="1" x1="0" y1="160" x2="640" y2="160" stroke="#449FDB" opacity="1"></line>
    <line stroke-width="1" x1="0" y1="176" x2="640" y2="176" stroke="#449FDB" opacity="0.3"></line>
    <line stroke-width="1" x1="0" y1="192" x2="640" y2="192" stroke="#449FDB" opacity="1"></line>
    <line stroke-width="1" x1="0" y1="208" x2="640" y2="208" stroke="#449FDB" opacity="0.3"></line>
    <line stroke-width="1" x1="0" y1="224" x2="640" y2="224" stroke="#449FDB" opacity="1"></line>
    <line stroke-width="1" x1="0" y1="240" x2="640" y2="240" stroke="#449FDB" opacity="0.3"></line>
    <line stroke-width="1" x1="0" y1="256" x2="640" y2="256" stroke="#449FDB" opacity="1"></line>
    <line stroke-width="1" x1="0" y1="272" x2="640" y2="272" stroke="#449FDB" opacity="0.3"></line>
    <line stroke-width="1" x1="0" y1="288" x2="640" y2="288" stroke="#449FDB" opacity="1"></line>
    <line stroke-width="1" x1="0" y1="304" x2="640" y2="304" stroke="#449FDB" opacity="0.3"></line>
    <line stroke-width="1" x1="0" y1="320" x2="640" y2="320" stroke="#449FDB" opacity="1"></line>
    <line stroke-width="1" x1="0" y1="336" x2="640" y2="336" stroke="#449FDB" opacity="0.3"></line>
    <line stroke-width="1" x1="0" y1="352" x2="640" y2="352" stroke="#449FDB" opacity="1"></line>
    <line stroke-width="1" x1="0" y1="368" x2="640" y2="368" stroke="#449FDB" opacity="0.3"></line>
    <line stroke-width="1" x1="0" y1="384" x2="640" y2="384" stroke="#449FDB" opacity="1"></line>
    <line stroke-width="1" x1="0" y1="400" x2="640" y2="400" stroke="#449FDB" opacity="0.3"></line>
    <line stroke-width="1" x1="0" y1="416" x2="640" y2="416" stroke="#449FDB" opacity="1"></line>
    <line stroke-width="1" x1="0" y1="432" x2="640" y2="432" stroke="#449FDB" opacity="0.3"></line>
    <line stroke-width="1" x1="0" y1="448" x2="640" y2="448" stroke="#449FDB" opacity="1"></line>
    <line stroke-width="1" x1="0" y1="464" x2="640" y2="464" stroke="#449FDB" opacity="0.3"></line>
    <line stroke-width="1" x1="0" y1="480" x2="640" y2="480" stroke="#449FDB" opacity="1"></line>
    <line stroke-width="1" x1="0" y1="496" x2="640" y2="496" stroke="#449FDB" opacity="0.3"></line>
    <line stroke-width="1" x1="0" y1="512" x2="640" y2="512" stroke="#449FDB" opacity="1"></line>
    <line stroke-width="1" x1="0" y1="528" x2="640" y2="528" stroke="#449FDB" opacity="0.3"></line>
    <line stroke-width="1" x1="0" y1="544" x2="640" y2="544" stroke="#449FDB" opacity="1"></line>
    <line stroke-width="1" x1="0" y1="560" x2="640" y2="560" stroke="#449FDB" opacity="0.3"></line>
    <line stroke-width="1" x1="0" y1="576" x2="640" y2="576" stroke="#449FDB" opacity="1"></line>
    <line stroke-width="1" x1="0" y1="592" x2="640" y2="592" stroke="#449FDB" opacity="0.3"></line>
    <line stroke-width="1" x1="0" y1="608" x2="640" y2="608" stroke="#449FDB" opacity="1"></line>
    <line stroke-width="1" x1="0" y1="624" x2="640" y2="624" stroke="#449FDB" opacity="0.3"></line>
</g>
<path d="M277.097 1.248q-32.498 3.746-61.874 16.873t-54.382 34.377q-15.622 13.746-20.31 21.564t-0.31 12.18q4.377 3.746 8.437 2.498t11.564-9.378q20.001-21.254 43.748-34.691t50.622-20.31 53.748-5.617 52.501 10q38.127 12.499 67.184 37.817t46.564 60.311q2.498 5 4.691 10t2.817 6.873q1.873 6.254 6.254 8.437t15.001 2.817q32.498 2.498 60.938 21.254t43.438 48.128q16.873 33.747 12.18 71.875t-29.691 67.498q-5 5.617-5.617 9.378t2.498 6.873q2.498 3.127 6.254 3.127t6.873-3.127q5.617-5 12.82-15.622t11.564-20.001q13.127-26.874 15.001-55.617 1.254-28.128-7.817-54.383t-27.182-48.128q-18.747-21.873-45.622-35.001-12.499-6.254-24.691-9.691t-26.564-4.691l-8.746-1.254-2.498-6.873q-3.746-8.127-10.939-20.941t-13.437-20.941q-24.38-32.498-56.874-53.438t-72.501-29.059q-12.499-3.127-32.817-4.059t-32.817 0.938v0zM118.349 107.504q-3.127 1.873-6.564 8.127t-8.437 19.38q-6.254 14.38-9.059 27.183t-5.31 34.691q-0.617 3.746-1.254 4.691t-3.746 1.564q-6.873 1.254-16.873 5.938t-17.501 9.691q-16.873 11.254-28.437 26.874t-17.183 36.254q-2.498 7.498-3.127 12.499t-0.617 18.127 0.617 18.127 2.498 12.499q10.62 33.747 35.938 55.311t59.058 25.311q5 0.617 15.001 0.938t18.747 0.31h21.254v25.623q0 23.747-1.873 27.182t-13.127 3.436h-10l-1.873-4.377q-3.746-8.746-12.818-14.691t-18.437-5.938q-13.746 0-24.062 10.62t-10.31 23.747q0 13.746 10.31 24.062t24.062 10.31q9.378 0 18.437-5.938t12.818-14.059l1.873-5h10q10 0 15.622-1.564t10-6.564q5.617-5.617 6.873-12.18t1.254-29.059v-25.623h58.748v13.746q0 8.746 0.31 11.564t2.183 4.691q2.498 2.498 6.873 2.498t6.873-2.498q1.873-1.873 2.183-4.691t0.31-11.564v-13.746h60.001v43.748q0 31.254 0.31 37.817t2.183 8.437q2.498 2.498 6.873 2.498t6.873-2.498q1.873-1.873 2.182-8.437t0.31-37.817v-43.748h60.001v60.617q0 33.747 0.31 48.747t0.938 17.501q1.873 5 6.873 10t10 6.873q2.498 0.617 6.873 0.938t8.746 0.31h10l1.873 5q3.746 8.127 12.82 14.059t18.437 5.938q13.746 0 24.062-10.31t10.31-24.062q0-13.127-10.31-23.747t-24.062-10.617q-9.378 0-18.437 5.938t-12.82 14.691l-1.873 4.378h-10q-12.499 0-13.746-5.938t-1.254-59.692v-60.617h58.748v25.623q0 22.501 1.254 29.059t6.873 12.182q4.378 5 10 6.564t15.622 1.564h10l1.873 5q3.746 8.127 12.817 14.059t18.437 5.938q13.746 0 24.062-10.31t10.31-24.062q0-13.127-10.31-23.747t-24.062-10.618q-9.378 0-18.437 5.938t-12.817 14.691l-1.873 4.377h-10q-11.254 0-13.127-3.436t-1.873-27.183v-25.001l18.127-1.254q10 0 16.254-0.938t13.127-2.817q10.62-2.498 20.001-6.564t12.499-6.564q3.127-3.127 2.817-7.182t-3.436-6.564-5.938-2.182-10.939 4.059q-3.746 1.873-9.691 4.059t-10.31 2.817l-10.62 3.127h-208.751q-146.876 0-179.377-0.31t-38.748-2.182q-24.383-5.617-43.128-23.747t-25.623-43.128q-1.873-8.127-1.873-23.437t2.498-24.062q6.254-25.623 25.311-43.748t44.692-24.38q10-2.498 12.499-5.938t3.746-17.822q1.873-20.001 5.938-35.001t11.564-30.617q2.498-5 4.059-9.378t1.564-6.254q0-5-4.059-7.498t-8.437-0.617v0zM102.099 476.878q3.746 1.873 6.254 5.938t2.498 7.817q0 5.617-5 10.62t-10.618 5-10.62-4.691-5-10.31q0-6.254 4.691-11.254t10.31-5q1.873 0 3.746 0.617l3.746 1.254zM549.613 476.878q3.746 1.873 6.254 5.938t2.498 7.817q0 5.617-4.691 10.62t-10.939 5q-5.617 0-10.62-4.691t-5-10.31q0-6.254 5-11.254t10.62-5q1.254 0 3.436 0.617t3.436 1.254zM472.102 546.879q3.746 1.873 6.254 5.938t2.498 7.817q0 6.254-5 10.939t-10.618 4.691-10.62-4.691-5-10.31q0-6.254 5-11.254t10.62-5q1.254 0 3.436 0.617t3.436 1.254v0zM233.351 486.878q-1.873 1.873-2.183 6.254t-0.31 25.001q0 25.622-1.564 29.378t-13.437 3.746h-10l-1.873-4.378q-3.746-8.746-12.82-14.691t-18.437-5.938q-13.746 0-24.062 10.617t-10.31 23.747q0 13.746 10.31 24.062t24.062 10.31q9.378 0 18.437-5.938t12.82-14.059l1.873-5h10q10 0 15.622-1.564t10-6.564q5.617-5.617 6.873-12.499t1.254-31.254q0-20.622-0.31-25.001t-2.183-6.254q-1.254-1.873-3.127-2.498t-3.746-0.617-3.746 0.617-3.127 2.498v0zM179.604 546.879q3.746 1.873 6.254 5.938t2.498 7.817q0 6.254-5 10.939t-10.62 4.691-10.618-4.691-5-10.31q0-6.254 4.691-11.254t10.31-5q1.873 0 4.059 0.617t3.436 1.254v0zM312.099 546.879q-1.873 1.254-2.183 4.059t-0.31 10.31v11.254l-4.377 1.873q-8.746 3.746-14.691 12.817t-5.938 18.437q0 13.746 10.31 24.062t24.062 10.31 24.062-10.31 10.31-24.062q0-9.378-5.938-18.437t-14.059-12.82l-5-1.873v-11.254q0-10.62-1.873-14.059t-7.498-3.436q-1.873 0-3.746 0.938t-3.127 2.183v0zM325.853 591.881q3.746 1.873 6.254 5.938t2.498 7.817q0 6.254-5 10.939t-10.62 4.691-10.617-4.691-5-10.31q0-6.254 4.691-11.254t10.939-5q1.254 0 3.436 0.617t3.436 1.254v0z"></path>
</svg>
