<!-- Generated by IcoMoon.io -->
<svg version="1.1" xmlns="http://www.w3.org/2000/svg" width="640" height="640" viewBox="0 0 640 640">
<title></title>
<g id="icomoon-ignore">
    <line stroke-width="1" x1="16" y1="0" x2="16" y2="640" stroke="#449FDB" opacity="0.3"></line>
    <line stroke-width="1" x1="32" y1="0" x2="32" y2="640" stroke="#449FDB" opacity="1"></line>
    <line stroke-width="1" x1="48" y1="0" x2="48" y2="640" stroke="#449FDB" opacity="0.3"></line>
    <line stroke-width="1" x1="64" y1="0" x2="64" y2="640" stroke="#449FDB" opacity="1"></line>
    <line stroke-width="1" x1="80" y1="0" x2="80" y2="640" stroke="#449FDB" opacity="0.3"></line>
    <line stroke-width="1" x1="96" y1="0" x2="96" y2="640" stroke="#449FDB" opacity="1"></line>
    <line stroke-width="1" x1="112" y1="0" x2="112" y2="640" stroke="#449FDB" opacity="0.3"></line>
    <line stroke-width="1" x1="128" y1="0" x2="128" y2="640" stroke="#449FDB" opacity="1"></line>
    <line stroke-width="1" x1="144" y1="0" x2="144" y2="640" stroke="#449FDB" opacity="0.3"></line>
    <line stroke-width="1" x1="160" y1="0" x2="160" y2="640" stroke="#449FDB" opacity="1"></line>
    <line stroke-width="1" x1="176" y1="0" x2="176" y2="640" stroke="#449FDB" opacity="0.3"></line>
    <line stroke-width="1" x1="192" y1="0" x2="192" y2="640" stroke="#449FDB" opacity="1"></line>
    <line stroke-width="1" x1="208" y1="0" x2="208" y2="640" stroke="#449FDB" opacity="0.3"></line>
    <line stroke-width="1" x1="224" y1="0" x2="224" y2="640" stroke="#449FDB" opacity="1"></line>
    <line stroke-width="1" x1="240" y1="0" x2="240" y2="640" stroke="#449FDB" opacity="0.3"></line>
    <line stroke-width="1" x1="256" y1="0" x2="256" y2="640" stroke="#449FDB" opacity="1"></line>
    <line stroke-width="1" x1="272" y1="0" x2="272" y2="640" stroke="#449FDB" opacity="0.3"></line>
    <line stroke-width="1" x1="288" y1="0" x2="288" y2="640" stroke="#449FDB" opacity="1"></line>
    <line stroke-width="1" x1="304" y1="0" x2="304" y2="640" stroke="#449FDB" opacity="0.3"></line>
    <line stroke-width="1" x1="320" y1="0" x2="320" y2="640" stroke="#449FDB" opacity="1"></line>
    <line stroke-width="1" x1="336" y1="0" x2="336" y2="640" stroke="#449FDB" opacity="0.3"></line>
    <line stroke-width="1" x1="352" y1="0" x2="352" y2="640" stroke="#449FDB" opacity="1"></line>
    <line stroke-width="1" x1="368" y1="0" x2="368" y2="640" stroke="#449FDB" opacity="0.3"></line>
    <line stroke-width="1" x1="384" y1="0" x2="384" y2="640" stroke="#449FDB" opacity="1"></line>
    <line stroke-width="1" x1="400" y1="0" x2="400" y2="640" stroke="#449FDB" opacity="0.3"></line>
    <line stroke-width="1" x1="416" y1="0" x2="416" y2="640" stroke="#449FDB" opacity="1"></line>
    <line stroke-width="1" x1="432" y1="0" x2="432" y2="640" stroke="#449FDB" opacity="0.3"></line>
    <line stroke-width="1" x1="448" y1="0" x2="448" y2="640" stroke="#449FDB" opacity="1"></line>
    <line stroke-width="1" x1="464" y1="0" x2="464" y2="640" stroke="#449FDB" opacity="0.3"></line>
    <line stroke-width="1" x1="480" y1="0" x2="480" y2="640" stroke="#449FDB" opacity="1"></line>
    <line stroke-width="1" x1="496" y1="0" x2="496" y2="640" stroke="#449FDB" opacity="0.3"></line>
    <line stroke-width="1" x1="512" y1="0" x2="512" y2="640" stroke="#449FDB" opacity="1"></line>
    <line stroke-width="1" x1="528" y1="0" x2="528" y2="640" stroke="#449FDB" opacity="0.3"></line>
    <line stroke-width="1" x1="544" y1="0" x2="544" y2="640" stroke="#449FDB" opacity="1"></line>
    <line stroke-width="1" x1="560" y1="0" x2="560" y2="640" stroke="#449FDB" opacity="0.3"></line>
    <line stroke-width="1" x1="576" y1="0" x2="576" y2="640" stroke="#449FDB" opacity="1"></line>
    <line stroke-width="1" x1="592" y1="0" x2="592" y2="640" stroke="#449FDB" opacity="0.3"></line>
    <line stroke-width="1" x1="608" y1="0" x2="608" y2="640" stroke="#449FDB" opacity="1"></line>
    <line stroke-width="1" x1="624" y1="0" x2="624" y2="640" stroke="#449FDB" opacity="0.3"></line>
    <line stroke-width="1" x1="0" y1="16" x2="640" y2="16" stroke="#449FDB" opacity="0.3"></line>
    <line stroke-width="1" x1="0" y1="32" x2="640" y2="32" stroke="#449FDB" opacity="1"></line>
    <line stroke-width="1" x1="0" y1="48" x2="640" y2="48" stroke="#449FDB" opacity="0.3"></line>
    <line stroke-width="1" x1="0" y1="64" x2="640" y2="64" stroke="#449FDB" opacity="1"></line>
    <line stroke-width="1" x1="0" y1="80" x2="640" y2="80" stroke="#449FDB" opacity="0.3"></line>
    <line stroke-width="1" x1="0" y1="96" x2="640" y2="96" stroke="#449FDB" opacity="1"></line>
    <line stroke-width="1" x1="0" y1="112" x2="640" y2="112" stroke="#449FDB" opacity="0.3"></line>
    <line stroke-width="1" x1="0" y1="128" x2="640" y2="128" stroke="#449FDB" opacity="1"></line>
    <line stroke-width="1" x1="0" y1="144" x2="640" y2="144" stroke="#449FDB" opacity="0.3"></line>
    <line stroke-width="1" x1="0" y1="160" x2="640" y2="160" stroke="#449FDB" opacity="1"></line>
    <line stroke-width="1" x1="0" y1="176" x2="640" y2="176" stroke="#449FDB" opacity="0.3"></line>
    <line stroke-width="1" x1="0" y1="192" x2="640" y2="192" stroke="#449FDB" opacity="1"></line>
    <line stroke-width="1" x1="0" y1="208" x2="640" y2="208" stroke="#449FDB" opacity="0.3"></line>
    <line stroke-width="1" x1="0" y1="224" x2="640" y2="224" stroke="#449FDB" opacity="1"></line>
    <line stroke-width="1" x1="0" y1="240" x2="640" y2="240" stroke="#449FDB" opacity="0.3"></line>
    <line stroke-width="1" x1="0" y1="256" x2="640" y2="256" stroke="#449FDB" opacity="1"></line>
    <line stroke-width="1" x1="0" y1="272" x2="640" y2="272" stroke="#449FDB" opacity="0.3"></line>
    <line stroke-width="1" x1="0" y1="288" x2="640" y2="288" stroke="#449FDB" opacity="1"></line>
    <line stroke-width="1" x1="0" y1="304" x2="640" y2="304" stroke="#449FDB" opacity="0.3"></line>
    <line stroke-width="1" x1="0" y1="320" x2="640" y2="320" stroke="#449FDB" opacity="1"></line>
    <line stroke-width="1" x1="0" y1="336" x2="640" y2="336" stroke="#449FDB" opacity="0.3"></line>
    <line stroke-width="1" x1="0" y1="352" x2="640" y2="352" stroke="#449FDB" opacity="1"></line>
    <line stroke-width="1" x1="0" y1="368" x2="640" y2="368" stroke="#449FDB" opacity="0.3"></line>
    <line stroke-width="1" x1="0" y1="384" x2="640" y2="384" stroke="#449FDB" opacity="1"></line>
    <line stroke-width="1" x1="0" y1="400" x2="640" y2="400" stroke="#449FDB" opacity="0.3"></line>
    <line stroke-width="1" x1="0" y1="416" x2="640" y2="416" stroke="#449FDB" opacity="1"></line>
    <line stroke-width="1" x1="0" y1="432" x2="640" y2="432" stroke="#449FDB" opacity="0.3"></line>
    <line stroke-width="1" x1="0" y1="448" x2="640" y2="448" stroke="#449FDB" opacity="1"></line>
    <line stroke-width="1" x1="0" y1="464" x2="640" y2="464" stroke="#449FDB" opacity="0.3"></line>
    <line stroke-width="1" x1="0" y1="480" x2="640" y2="480" stroke="#449FDB" opacity="1"></line>
    <line stroke-width="1" x1="0" y1="496" x2="640" y2="496" stroke="#449FDB" opacity="0.3"></line>
    <line stroke-width="1" x1="0" y1="512" x2="640" y2="512" stroke="#449FDB" opacity="1"></line>
    <line stroke-width="1" x1="0" y1="528" x2="640" y2="528" stroke="#449FDB" opacity="0.3"></line>
    <line stroke-width="1" x1="0" y1="544" x2="640" y2="544" stroke="#449FDB" opacity="1"></line>
    <line stroke-width="1" x1="0" y1="560" x2="640" y2="560" stroke="#449FDB" opacity="0.3"></line>
    <line stroke-width="1" x1="0" y1="576" x2="640" y2="576" stroke="#449FDB" opacity="1"></line>
    <line stroke-width="1" x1="0" y1="592" x2="640" y2="592" stroke="#449FDB" opacity="0.3"></line>
    <line stroke-width="1" x1="0" y1="608" x2="640" y2="608" stroke="#449FDB" opacity="1"></line>
    <line stroke-width="1" x1="0" y1="624" x2="640" y2="624" stroke="#449FDB" opacity="0.3"></line>
</g>
<path d="M437.501 88.123q-1.876 0.626-3.127 1.876t-1.876 2.499q-0.626 0.626-0.626 14.999t-0.314 42.812-0.314 70.939v325.629l3.748 3.748q3.748 3.127 8.124 3.127t8.124-3.748l3.748-3.748v-325.629q0-42.5-0.314-70.624t-0.314-42.5-0.626-14.999q-1.249-1.876-4.689-4.062t-5.939-2.187q-1.249 0-2.813 0.626t-2.813 1.249zM126.873 139.373q-1.249 1.249-2.187 3.438t-1.563 4.689v15.627q-0.626 14.376-0.626 38.437v122.814l0.626 171.876 2.499 3.127q3.748 4.999 9.062 5.311t9.688-4.062l3.127-3.127v-353.753l-3.748-3.748q-3.127-3.748-8.124-3.748t-8.752 3.127v0zM375 171.248l-4.376 3.748-0.626 141.251q0 94.376 0.314 118.44t1.563 27.187q2.499 5.626 8.438 6.561t10.313-2.813l3.748-3.127 0.626-141.877q0-79.377-0.314-111.566t-0.936-34.688q-1.249-2.499-4.689-4.689t-7.189-2.187q-1.249 0-3.438 0.936t-3.438 2.813zM499.377 186.247q-5.626 1.876-6.25 15.938t-0.626 117.813v127.5l3.748 3.748q4.376 5.626 11.251 4.062t8.752-8.438q0.626-2.499 0.936-34.374t0.314-93.126q0-98.751-0.626-113.751t-5.626-18.75q-2.499-1.249-5.626-1.563t-6.25 0.936v0zM188.749 201.249l-3.748 3.748v108.753q0 54.376 0.314 82.189t0.936 29.063q2.499 4.999 9.374 5.626t10.624-3.748q1.876-2.499 2.187-17.189t0.314-95.312v-109.374l-3.748-3.748q-1.876-1.876-3.748-2.813t-4.376-0.936-4.376 0.936-3.748 2.813zM66.871 222.498q-4.376 2.499-4.999 14.376t-0.626 81.251q0 71.874 0.936 82.812t7.189 13.436q3.748 1.876 7.189 0.936t6.561-4.062l3.127-3.748v-89.999l-0.626-89.999-3.748-3.127q-2.499-2.499-7.189-3.127t-7.811 1.249zM561.878 247.498q-1.249 0.626-2.813 1.876t-2.813 2.499l-2.499 3.748v66.249l0.626 65.627 3.748 3.127q3.127 2.499 7.501 2.813t7.501-1.563q4.376-3.127 4.999-12.814t0.626-60.314l-0.626-64.999-3.127-3.127q-2.499-2.499-6.25-3.438t-6.875 0.314v0zM311.876 257.499q-3.748 2.499-4.689 10.937t-0.936 49.686q0 41.876 0.936 50.001t5.311 10.624q3.127 1.876 7.501 1.249t6.875-3.127l3.748-3.127 0.626-53.127q0-42.5-0.626-50.937t-4.999-11.564q-1.876-1.876-6.561-1.876t-7.189 1.249v0zM6.247 273.126q-4.376 2.499-5.311 8.438t-0.936 33.438v33.752l4.376 4.376q3.127 3.127 4.689 3.748t4.062 0q1.876 0 4.376-1.249t3.748-2.499l3.127-3.127v-71.252l-4.376-3.748q-3.127-3.127-6.561-3.438t-7.189 1.563zM623.753 280.001q-1.876 0.626-3.438 2.187t-2.813 3.438q-1.876 2.499-2.187 7.501t-0.314 26.249l0.626 30.626 3.748 3.127q3.748 4.376 8.438 4.062t8.438-4.689l3.748-3.748v-30.626q0-21.252-0.314-26.249t-2.187-7.501q-2.499-3.127-5.939-4.062t-7.811-0.314zM249.998 287.498l-3.748 3.748v28.127q0 13.126 0.314 21.252t0.936 10.001q0.626 1.249 2.187 2.813t3.438 2.187q3.748 1.876 7.811 0.936t7.189-4.689q1.876-2.499 2.187-6.875t0.936-23.124q0-16.876-0.314-22.501t-1.563-8.752q-2.499-5.626-8.752-6.875t-10.624 3.748v0z"></path>
</svg>
